<!-- icon666.com - MILLIONS vector ICONS FREE -->
<svg xmlns="http://www.w3.org/2000/svg" viewBox="0 0 64 64">
    <g id="Layer_32" data-name="Layer 32">
        <path
            d="M35,22h1a2.963,2.963,0,0,1,.95.168l1.4-4.907A10.435,10.435,0,0,0,35.192,6.543,18.361,18.361,0,0,0,23.1,2h-.2A18.361,18.361,0,0,0,10.808,6.543,10.435,10.435,0,0,0,7.646,17.261l1.405,4.907A2.957,2.957,0,0,1,10,22h1V18h8.615A7.954,7.954,0,0,0,27,13a7.954,7.954,0,0,0,7.385,5H35Z"
            style="fill:#5b5b5d" />
        <path
            d="M35,18v7A12,12,0,0,1,23,37h0A12,12,0,0,1,11,25V18h8.615A7.954,7.954,0,0,0,27,13h0a7.954,7.954,0,0,0,7.385,5Z"
            style="fill:#f7e2cd" />
        <path d="M11,25V22H10a3,3,0,0,0,0,6h1.393A12.017,12.017,0,0,1,11,25Z" style="fill:#f7e2cd" />
        <path
            d="M39.088,42.465,28,39h0a6.831,6.831,0,0,1-4.828,2h-.344A6.831,6.831,0,0,1,18,39L6.912,42.465A7,7,0,0,0,2,49.146V62H44V49.146A7,7,0,0,0,39.088,42.465Z"
            style="fill:#f2b149" />
        <rect x="2" y="56" width="9" height="6" style="fill:#f7e2cd" />
        <rect x="35" y="56" width="9" height="6" style="fill:#f7e2cd" />
        <polygon points="36 62 38 46 8 46 8 46 10 62 36 62" style="fill:#646465" />
        <path d="M49,29A12.994,12.994,0,0,0,38.307,49.385L36,54l5.823-1.165A13,13,0,1,0,49,29Z"
            style="fill:#4179b3" />
        <path
            d="M49,29A12.994,12.994,0,0,0,38.307,49.385L38,50H53a4,4,0,0,0,4-4V31.767A12.931,12.931,0,0,0,49,29Z"
            style="fill:#6598c5" />
        <path
            d="M23,37a11.926,11.926,0,0,1-5-1.1V39a6.831,6.831,0,0,0,4.828,2h.344A6.831,6.831,0,0,0,28,39h0V35.9A11.926,11.926,0,0,1,23,37Z"
            style="fill:#f7e2cd" />
        <path d="M36,22H35v3a12.017,12.017,0,0,1-.393,3H36a3,3,0,0,0,0-6Z" style="fill:#f7e2cd" />
        <circle cx="23" cy="54" r="3" style="fill:#5b5b5d" />
        <circle cx="18" cy="24" r="3" style="fill:#ccc" />
        <circle cx="28" cy="24" r="3" style="fill:#ccc" />
        <path d="M23,50a4,4,0,1,0,4,4A4,4,0,0,0,23,50Zm0,6a2,2,0,1,1,2-2A2,2,0,0,1,23,56Z" />
        <path d="M27,30H25a2,2,0,0,1-4,0H19a4,4,0,0,0,8,0Z" />
        <path d="M43.293,37.293l-4,4a1,1,0,0,0,0,1.414l4,4,1.414-1.414L41.414,42l3.293-3.293Z" />
        <path
            d="M58.707,41.293l-4-4-1.414,1.414L56.586,42l-3.293,3.293,1.414,1.414,4-4A1,1,0,0,0,58.707,41.293Z" />
        <rect x="43.901" y="41" width="10.198" height="2"
            transform="translate(-1.802 81.802) rotate(-78.679)" />
        <path
            d="M49,28A14.011,14.011,0,0,0,35.132,40.181L29,38.265V36.521A13.058,13.058,0,0,0,35.364,29H36a3.993,3.993,0,0,0,2.145-7.365l1.17-4.1A11.432,11.432,0,0,0,35.851,5.79,19.359,19.359,0,0,0,23.1,1h-.2a19.359,19.359,0,0,0-12.75,4.79A11.431,11.431,0,0,0,6.685,17.536l1.17,4.1A3.993,3.993,0,0,0,10,29h.636A13.058,13.058,0,0,0,17,36.521v1.744L6.614,41.511A7.964,7.964,0,0,0,1,49.146V62a1,1,0,0,0,1,1H44a1,1,0,0,0,1-1V55.413A14,14,0,1,0,49,28ZM36,27h-.17A13.056,13.056,0,0,0,36,25V23a2,2,0,0,1,0,4Zm-4.289-4.474A3.985,3.985,0,0,0,24.142,23H21.858a3.985,3.985,0,0,0-7.569-.474L12,21.382V19h7.615A8.908,8.908,0,0,0,27,15.115a8.9,8.9,0,0,0,7,3.877v2.39ZM30,24a2,2,0,1,1-2-2A2,2,0,0,1,30,24ZM20,24a2,2,0,1,1-2-2A2,2,0,0,1,20,24ZM8.608,16.987A9.432,9.432,0,0,1,11.466,7.3,17.355,17.355,0,0,1,22.9,3h.2A17.355,17.355,0,0,1,34.534,7.3a9.433,9.433,0,0,1,2.858,9.691l-1.154,4.037C36.158,21.019,36.082,21,36,21V18a1,1,0,0,0-1-1h-.615a6.92,6.92,0,0,1-6.456-4.371,1,1,0,0,0-1.858,0A6.92,6.92,0,0,1,19.615,17H11a1,1,0,0,0-1,1v3c-.082,0-.158.019-.238.024ZM10,27a2,2,0,0,1,0-4v2a13.056,13.056,0,0,0,.17,2Zm2-2V23.618l2.066,1.033A3.983,3.983,0,0,0,21.858,25h2.284a3.983,3.983,0,0,0,7.792-.349L34,23.618V25a11,11,0,0,1-22,0ZM23,38a12.94,12.94,0,0,0,4-.636v1.194A5.867,5.867,0,0,1,23.172,40h-.344A5.867,5.867,0,0,1,19,38.558V37.364A12.94,12.94,0,0,0,23,38ZM7.21,43.419l10.544-3.295A7.882,7.882,0,0,0,22.828,42h.344a7.882,7.882,0,0,0,5.074-1.876l6.762,2.113A13.986,13.986,0,0,0,35.326,45H8a1,1,0,0,0-.992,1.124L8.117,55H3V49.146A5.975,5.975,0,0,1,7.21,43.419ZM3,57H8.367l.5,4H3Zm7.883,4L9.133,47h26.8a13.986,13.986,0,0,0,1.226,2.454l-2.05,4.1a.994.994,0,0,0,.764,1.434L35.117,61ZM43,55H37.883l.045-.366,3.7-.739A14.08,14.08,0,0,0,43,54.639Zm-5.867,6,.5-4H43v4ZM49,54a11.926,11.926,0,0,1-6.623-2,1.009,1.009,0,0,0-.554-.167,1.084,1.084,0,0,0-.2.019l-3.818.764L39.2,49.832a1,1,0,0,0-.072-1.017A12,12,0,1,1,49,54Z" />
    </g>
</svg>